<mxfile host="app.diagrams.net" modified="2021-01-10T04:55:23.337Z" agent="5.0 (Windows NT 10.0; WOW64) AppleWebKit/537.36 (KHTML, like Gecko) Chrome/70.0.3538.25 Safari/537.36 Core/1.70.3864.400 QQBrowser/10.7.4355.400" etag="mTcJ2rWHj1ZIZAA565Q4" version="14.1.8" type="github">
  <diagram id="ngyVM8JQiC7A4kfKxXJK" name="Page-1">
    <mxGraphModel dx="2317" dy="619" grid="1" gridSize="10" guides="1" tooltips="1" connect="1" arrows="1" fold="1" page="1" pageScale="1" pageWidth="827" pageHeight="1169" math="0" shadow="0">
      <root>
        <mxCell id="0" />
        <mxCell id="1" parent="0" />
        <mxCell id="viiDzJAV20nZqete5Nnj-3" style="edgeStyle=orthogonalEdgeStyle;rounded=0;orthogonalLoop=1;jettySize=auto;html=1;exitX=1;exitY=0.5;exitDx=0;exitDy=0;" edge="1" parent="1" source="viiDzJAV20nZqete5Nnj-1" target="viiDzJAV20nZqete5Nnj-2">
          <mxGeometry relative="1" as="geometry" />
        </mxCell>
        <mxCell id="viiDzJAV20nZqete5Nnj-1" value="管理员" style="rounded=0;whiteSpace=wrap;html=1;" vertex="1" parent="1">
          <mxGeometry x="100" y="110" width="100" height="50" as="geometry" />
        </mxCell>
        <mxCell id="viiDzJAV20nZqete5Nnj-2" value="1&lt;br&gt;管理顾客信息" style="ellipse;whiteSpace=wrap;html=1;aspect=fixed;" vertex="1" parent="1">
          <mxGeometry x="280" y="95" width="80" height="80" as="geometry" />
        </mxCell>
        <mxCell id="viiDzJAV20nZqete5Nnj-6" value="顾客信息记录表" style="strokeWidth=2;html=1;shape=mxgraph.flowchart.annotation_1;align=left;pointerEvents=1;" vertex="1" parent="1">
          <mxGeometry x="390" y="30" width="100" height="40" as="geometry" />
        </mxCell>
        <mxCell id="viiDzJAV20nZqete5Nnj-7" value="" style="endArrow=classic;html=1;exitX=0.5;exitY=0;exitDx=0;exitDy=0;entryX=0;entryY=0.5;entryDx=0;entryDy=0;entryPerimeter=0;" edge="1" parent="1" source="viiDzJAV20nZqete5Nnj-2" target="viiDzJAV20nZqete5Nnj-6">
          <mxGeometry width="50" height="50" relative="1" as="geometry">
            <mxPoint x="390" y="330" as="sourcePoint" />
            <mxPoint x="440" y="280" as="targetPoint" />
          </mxGeometry>
        </mxCell>
        <mxCell id="viiDzJAV20nZqete5Nnj-26" style="edgeStyle=orthogonalEdgeStyle;rounded=0;orthogonalLoop=1;jettySize=auto;html=1;exitX=0.5;exitY=1;exitDx=0;exitDy=0;" edge="1" parent="1" source="viiDzJAV20nZqete5Nnj-9" target="viiDzJAV20nZqete5Nnj-27">
          <mxGeometry relative="1" as="geometry">
            <mxPoint x="645" y="300" as="targetPoint" />
          </mxGeometry>
        </mxCell>
        <mxCell id="viiDzJAV20nZqete5Nnj-9" value="顾客" style="rounded=0;whiteSpace=wrap;html=1;" vertex="1" parent="1">
          <mxGeometry x="610" y="200" width="70" height="40" as="geometry" />
        </mxCell>
        <mxCell id="viiDzJAV20nZqete5Nnj-10" value="2&lt;br&gt;管理个人信息" style="ellipse;whiteSpace=wrap;html=1;aspect=fixed;" vertex="1" parent="1">
          <mxGeometry x="690" y="70" width="80" height="80" as="geometry" />
        </mxCell>
        <mxCell id="viiDzJAV20nZqete5Nnj-11" value="" style="endArrow=classic;startArrow=classic;html=1;exitX=0.5;exitY=0;exitDx=0;exitDy=0;entryX=0.5;entryY=1;entryDx=0;entryDy=0;" edge="1" parent="1" source="viiDzJAV20nZqete5Nnj-9" target="viiDzJAV20nZqete5Nnj-10">
          <mxGeometry width="50" height="50" relative="1" as="geometry">
            <mxPoint x="390" y="330" as="sourcePoint" />
            <mxPoint x="440" y="280" as="targetPoint" />
          </mxGeometry>
        </mxCell>
        <mxCell id="viiDzJAV20nZqete5Nnj-12" value="" style="endArrow=classic;startArrow=classic;html=1;exitX=0.5;exitY=1;exitDx=0;exitDy=0;exitPerimeter=0;entryX=0;entryY=0.5;entryDx=0;entryDy=0;" edge="1" parent="1" source="viiDzJAV20nZqete5Nnj-6" target="viiDzJAV20nZqete5Nnj-10">
          <mxGeometry width="50" height="50" relative="1" as="geometry">
            <mxPoint x="390" y="330" as="sourcePoint" />
            <mxPoint x="440" y="280" as="targetPoint" />
          </mxGeometry>
        </mxCell>
        <mxCell id="viiDzJAV20nZqete5Nnj-13" value="6&lt;br&gt;生成日/月销售额统计表" style="ellipse;whiteSpace=wrap;html=1;aspect=fixed;" vertex="1" parent="1">
          <mxGeometry x="20" y="280" width="80" height="80" as="geometry" />
        </mxCell>
        <mxCell id="viiDzJAV20nZqete5Nnj-14" value="3&lt;br&gt;管理产品信息" style="ellipse;whiteSpace=wrap;html=1;aspect=fixed;" vertex="1" parent="1">
          <mxGeometry x="230" y="250" width="80" height="80" as="geometry" />
        </mxCell>
        <mxCell id="viiDzJAV20nZqete5Nnj-15" value="4&lt;br&gt;管理订单信息" style="ellipse;whiteSpace=wrap;html=1;aspect=fixed;" vertex="1" parent="1">
          <mxGeometry x="350" y="220" width="80" height="80" as="geometry" />
        </mxCell>
        <mxCell id="viiDzJAV20nZqete5Nnj-16" value="5&lt;br&gt;管理产品折扣信息" style="ellipse;whiteSpace=wrap;html=1;aspect=fixed;" vertex="1" parent="1">
          <mxGeometry x="130" y="270" width="80" height="80" as="geometry" />
        </mxCell>
        <mxCell id="viiDzJAV20nZqete5Nnj-18" value="" style="endArrow=classic;html=1;exitX=0.75;exitY=1;exitDx=0;exitDy=0;entryX=0.3;entryY=0.057;entryDx=0;entryDy=0;entryPerimeter=0;" edge="1" parent="1" source="viiDzJAV20nZqete5Nnj-1" target="viiDzJAV20nZqete5Nnj-14">
          <mxGeometry width="50" height="50" relative="1" as="geometry">
            <mxPoint x="390" y="330" as="sourcePoint" />
            <mxPoint x="440" y="280" as="targetPoint" />
          </mxGeometry>
        </mxCell>
        <mxCell id="viiDzJAV20nZqete5Nnj-19" value="" style="endArrow=classic;html=1;exitX=1;exitY=1;exitDx=0;exitDy=0;entryX=0.07;entryY=0.242;entryDx=0;entryDy=0;entryPerimeter=0;" edge="1" parent="1" source="viiDzJAV20nZqete5Nnj-1" target="viiDzJAV20nZqete5Nnj-15">
          <mxGeometry width="50" height="50" relative="1" as="geometry">
            <mxPoint x="390" y="330" as="sourcePoint" />
            <mxPoint x="440" y="280" as="targetPoint" />
          </mxGeometry>
        </mxCell>
        <mxCell id="viiDzJAV20nZqete5Nnj-21" value="订单信息记录表" style="strokeWidth=2;html=1;shape=mxgraph.flowchart.annotation_1;align=left;pointerEvents=1;" vertex="1" parent="1">
          <mxGeometry x="390" y="350" width="100" height="40" as="geometry" />
        </mxCell>
        <mxCell id="viiDzJAV20nZqete5Nnj-22" value="产品信息记录表" style="strokeWidth=2;html=1;shape=mxgraph.flowchart.annotation_1;align=left;pointerEvents=1;" vertex="1" parent="1">
          <mxGeometry x="260" y="380" width="100" height="40" as="geometry" />
        </mxCell>
        <mxCell id="viiDzJAV20nZqete5Nnj-24" value="" style="endArrow=classic;html=1;exitX=0.63;exitY=0.982;exitDx=0;exitDy=0;exitPerimeter=0;entryX=0.5;entryY=0;entryDx=0;entryDy=0;entryPerimeter=0;" edge="1" parent="1" source="viiDzJAV20nZqete5Nnj-15" target="viiDzJAV20nZqete5Nnj-21">
          <mxGeometry width="50" height="50" relative="1" as="geometry">
            <mxPoint x="390" y="330" as="sourcePoint" />
            <mxPoint x="440" y="280" as="targetPoint" />
          </mxGeometry>
        </mxCell>
        <mxCell id="viiDzJAV20nZqete5Nnj-25" value="" style="endArrow=classic;html=1;exitX=0.5;exitY=1;exitDx=0;exitDy=0;entryX=0.5;entryY=0;entryDx=0;entryDy=0;entryPerimeter=0;" edge="1" parent="1" source="viiDzJAV20nZqete5Nnj-14" target="viiDzJAV20nZqete5Nnj-22">
          <mxGeometry width="50" height="50" relative="1" as="geometry">
            <mxPoint x="390" y="330" as="sourcePoint" />
            <mxPoint x="440" y="280" as="targetPoint" />
          </mxGeometry>
        </mxCell>
        <mxCell id="viiDzJAV20nZqete5Nnj-27" value="8&lt;br&gt;购买产品" style="ellipse;whiteSpace=wrap;html=1;aspect=fixed;" vertex="1" parent="1">
          <mxGeometry x="605" y="260" width="80" height="80" as="geometry" />
        </mxCell>
        <mxCell id="viiDzJAV20nZqete5Nnj-29" value="" style="endArrow=classic;html=1;exitX=0.5;exitY=1;exitDx=0;exitDy=0;exitPerimeter=0;entryX=0.5;entryY=1;entryDx=0;entryDy=0;" edge="1" parent="1" source="viiDzJAV20nZqete5Nnj-22" target="viiDzJAV20nZqete5Nnj-27">
          <mxGeometry width="50" height="50" relative="1" as="geometry">
            <mxPoint x="390" y="330" as="sourcePoint" />
            <mxPoint x="440" y="280" as="targetPoint" />
            <Array as="points">
              <mxPoint x="500" y="470" />
            </Array>
          </mxGeometry>
        </mxCell>
        <mxCell id="viiDzJAV20nZqete5Nnj-34" value="" style="endArrow=classic;html=1;exitX=0;exitY=0.5;exitDx=0;exitDy=0;entryX=0.616;entryY=-0.005;entryDx=0;entryDy=0;entryPerimeter=0;" edge="1" parent="1" source="viiDzJAV20nZqete5Nnj-27" target="viiDzJAV20nZqete5Nnj-21">
          <mxGeometry width="50" height="50" relative="1" as="geometry">
            <mxPoint x="390" y="330" as="sourcePoint" />
            <mxPoint x="440" y="280" as="targetPoint" />
          </mxGeometry>
        </mxCell>
        <mxCell id="viiDzJAV20nZqete5Nnj-36" value="" style="endArrow=classic;html=1;exitX=0.5;exitY=1;exitDx=0;exitDy=0;" edge="1" parent="1" source="viiDzJAV20nZqete5Nnj-16">
          <mxGeometry width="50" height="50" relative="1" as="geometry">
            <mxPoint x="390" y="330" as="sourcePoint" />
            <mxPoint x="180" y="390" as="targetPoint" />
          </mxGeometry>
        </mxCell>
        <mxCell id="viiDzJAV20nZqete5Nnj-37" value="产品折扣信息记录表" style="strokeWidth=2;html=1;shape=mxgraph.flowchart.annotation_1;align=left;pointerEvents=1;" vertex="1" parent="1">
          <mxGeometry x="130" y="390" width="100" height="40" as="geometry" />
        </mxCell>
        <mxCell id="viiDzJAV20nZqete5Nnj-38" value="" style="endArrow=classic;html=1;exitX=0.5;exitY=1;exitDx=0;exitDy=0;exitPerimeter=0;entryX=1;entryY=1;entryDx=0;entryDy=0;" edge="1" parent="1" source="viiDzJAV20nZqete5Nnj-37" target="viiDzJAV20nZqete5Nnj-27">
          <mxGeometry width="50" height="50" relative="1" as="geometry">
            <mxPoint x="390" y="330" as="sourcePoint" />
            <mxPoint x="440" y="280" as="targetPoint" />
            <Array as="points">
              <mxPoint x="550" y="530" />
            </Array>
          </mxGeometry>
        </mxCell>
        <mxCell id="viiDzJAV20nZqete5Nnj-42" value="" style="endArrow=classic;html=1;exitX=0.5;exitY=1;exitDx=0;exitDy=0;entryX=0.5;entryY=0;entryDx=0;entryDy=0;" edge="1" parent="1" source="viiDzJAV20nZqete5Nnj-1" target="viiDzJAV20nZqete5Nnj-16">
          <mxGeometry width="50" height="50" relative="1" as="geometry">
            <mxPoint x="390" y="330" as="sourcePoint" />
            <mxPoint x="440" y="280" as="targetPoint" />
          </mxGeometry>
        </mxCell>
        <mxCell id="viiDzJAV20nZqete5Nnj-43" value="" style="endArrow=classic;html=1;exitX=0;exitY=1;exitDx=0;exitDy=0;entryX=0.5;entryY=0;entryDx=0;entryDy=0;" edge="1" parent="1" source="viiDzJAV20nZqete5Nnj-1" target="viiDzJAV20nZqete5Nnj-13">
          <mxGeometry width="50" height="50" relative="1" as="geometry">
            <mxPoint x="390" y="330" as="sourcePoint" />
            <mxPoint x="440" y="280" as="targetPoint" />
          </mxGeometry>
        </mxCell>
        <mxCell id="viiDzJAV20nZqete5Nnj-44" value="" style="endArrow=classic;html=1;exitX=0.336;exitY=0.975;exitDx=0;exitDy=0;exitPerimeter=0;entryX=0.5;entryY=1;entryDx=0;entryDy=0;" edge="1" parent="1" source="viiDzJAV20nZqete5Nnj-21" target="viiDzJAV20nZqete5Nnj-13">
          <mxGeometry width="50" height="50" relative="1" as="geometry">
            <mxPoint x="390" y="330" as="sourcePoint" />
            <mxPoint x="440" y="280" as="targetPoint" />
            <Array as="points">
              <mxPoint x="200" y="570" />
            </Array>
          </mxGeometry>
        </mxCell>
        <mxCell id="viiDzJAV20nZqete5Nnj-46" value="" style="endArrow=classic;html=1;exitX=0;exitY=0.5;exitDx=0;exitDy=0;" edge="1" parent="1" source="viiDzJAV20nZqete5Nnj-1" target="viiDzJAV20nZqete5Nnj-47">
          <mxGeometry width="50" height="50" relative="1" as="geometry">
            <mxPoint x="390" y="270" as="sourcePoint" />
            <mxPoint x="50" y="135" as="targetPoint" />
          </mxGeometry>
        </mxCell>
        <mxCell id="viiDzJAV20nZqete5Nnj-47" value="7&lt;br&gt;生成产品销售量统计表" style="ellipse;whiteSpace=wrap;html=1;aspect=fixed;" vertex="1" parent="1">
          <mxGeometry x="-30" y="95" width="80" height="80" as="geometry" />
        </mxCell>
        <mxCell id="viiDzJAV20nZqete5Nnj-48" value="" style="endArrow=classic;html=1;entryX=0;entryY=1;entryDx=0;entryDy=0;" edge="1" parent="1" target="viiDzJAV20nZqete5Nnj-13">
          <mxGeometry width="50" height="50" relative="1" as="geometry">
            <mxPoint x="500" y="470" as="sourcePoint" />
            <mxPoint x="440" y="420" as="targetPoint" />
            <Array as="points">
              <mxPoint x="120" y="630" />
            </Array>
          </mxGeometry>
        </mxCell>
        <mxCell id="viiDzJAV20nZqete5Nnj-49" value="" style="endArrow=classic;html=1;entryX=0;entryY=1;entryDx=0;entryDy=0;" edge="1" parent="1" target="viiDzJAV20nZqete5Nnj-47">
          <mxGeometry width="50" height="50" relative="1" as="geometry">
            <mxPoint x="90" y="410" as="sourcePoint" />
            <mxPoint x="440" y="520" as="targetPoint" />
            <Array as="points">
              <mxPoint x="-40" y="340" />
            </Array>
          </mxGeometry>
        </mxCell>
        <mxCell id="viiDzJAV20nZqete5Nnj-50" value="" style="endArrow=classic;html=1;entryX=-0.017;entryY=0.675;entryDx=0;entryDy=0;entryPerimeter=0;" edge="1" parent="1" target="viiDzJAV20nZqete5Nnj-47">
          <mxGeometry width="50" height="50" relative="1" as="geometry">
            <mxPoint x="80" y="510" as="sourcePoint" />
            <mxPoint x="-201.5999755859375" y="220" as="targetPoint" />
            <Array as="points">
              <mxPoint x="-80" y="380" />
            </Array>
          </mxGeometry>
        </mxCell>
        <mxCell id="viiDzJAV20nZqete5Nnj-51" value="" style="endArrow=classic;html=1;exitX=1;exitY=0.75;exitDx=0;exitDy=0;" edge="1" parent="1" source="viiDzJAV20nZqete5Nnj-9" target="viiDzJAV20nZqete5Nnj-52">
          <mxGeometry width="50" height="50" relative="1" as="geometry">
            <mxPoint x="620" y="320" as="sourcePoint" />
            <mxPoint x="750" y="410" as="targetPoint" />
          </mxGeometry>
        </mxCell>
        <mxCell id="viiDzJAV20nZqete5Nnj-52" value="9&lt;br&gt;查询日消费统计表" style="ellipse;whiteSpace=wrap;html=1;aspect=fixed;" vertex="1" parent="1">
          <mxGeometry x="710" y="370" width="80" height="80" as="geometry" />
        </mxCell>
        <mxCell id="viiDzJAV20nZqete5Nnj-53" value="" style="endArrow=classic;html=1;exitX=0.5;exitY=1;exitDx=0;exitDy=0;exitPerimeter=0;entryX=0;entryY=0.5;entryDx=0;entryDy=0;" edge="1" parent="1" source="viiDzJAV20nZqete5Nnj-21" target="viiDzJAV20nZqete5Nnj-52">
          <mxGeometry width="50" height="50" relative="1" as="geometry">
            <mxPoint x="620" y="520" as="sourcePoint" />
            <mxPoint x="670" y="470" as="targetPoint" />
          </mxGeometry>
        </mxCell>
        <mxCell id="viiDzJAV20nZqete5Nnj-54" value="" style="endArrow=classic;html=1;entryX=0.392;entryY=1.038;entryDx=0;entryDy=0;entryPerimeter=0;" edge="1" parent="1" target="viiDzJAV20nZqete5Nnj-52">
          <mxGeometry width="50" height="50" relative="1" as="geometry">
            <mxPoint x="310" y="550" as="sourcePoint" />
            <mxPoint x="670" y="470" as="targetPoint" />
            <Array as="points">
              <mxPoint x="570" y="550" />
            </Array>
          </mxGeometry>
        </mxCell>
        <mxCell id="viiDzJAV20nZqete5Nnj-55" value="" style="endArrow=classic;html=1;" edge="1" parent="1">
          <mxGeometry width="50" height="50" relative="1" as="geometry">
            <mxPoint x="570" y="490" as="sourcePoint" />
            <mxPoint x="720" y="426" as="targetPoint" />
          </mxGeometry>
        </mxCell>
      </root>
    </mxGraphModel>
  </diagram>
</mxfile>
